<svg aria-hidden="true" style="position: absolute; width: 0; height: 0; overflow: hidden;" version="1.1" xmlns="http://www.w3.org/2000/svg" xmlns:xlink="http://www.w3.org/1999/xlink">
  <defs>
   <symbol id="icon-logo" viewBox="0 0 105 32">
        <path fill="#262626" style="fill: var(--color1, #262626)" d="M9.226 25.42c-1.475 0-2.711-0.35-3.71-1.050s-1.75-1.652-2.254-2.856c-0.504-1.213-0.756-2.571-0.756-4.074 0-1.521 0.252-2.884 0.756-4.088s1.241-2.151 2.212-2.842c0.98-0.7 2.189-1.050 3.626-1.050 1.428 0 2.665 0.35 3.71 1.050 1.055 0.691 1.871 1.638 2.45 2.842 0.579 1.195 0.868 2.557 0.868 4.088 0 1.512-0.285 2.87-0.854 4.074s-1.372 2.156-2.408 2.856c-1.036 0.7-2.249 1.050-3.64 1.050zM1.932 31.72v-21.84h2.982v10.612h0.42v11.228h-3.402zM8.708 22.396c0.877 0 1.601-0.219 2.17-0.658s0.989-1.031 1.26-1.778c0.28-0.756 0.42-1.596 0.42-2.52 0-0.915-0.14-1.745-0.42-2.492-0.28-0.756-0.714-1.353-1.302-1.792-0.588-0.448-1.335-0.672-2.24-0.672-0.859 0-1.559 0.21-2.1 0.63-0.541 0.411-0.943 0.989-1.204 1.736-0.252 0.737-0.378 1.601-0.378 2.59 0 0.98 0.126 1.843 0.378 2.59 0.261 0.747 0.667 1.33 1.218 1.75 0.56 0.411 1.293 0.616 2.198 0.616zM24.968 25.42c-1.531 0-2.875-0.331-4.032-0.994s-2.063-1.582-2.716-2.758c-0.644-1.176-0.966-2.529-0.966-4.060 0-1.652 0.317-3.085 0.952-4.298 0.635-1.223 1.517-2.17 2.646-2.842s2.436-1.008 3.92-1.008c1.568 0 2.898 0.369 3.99 1.106 1.101 0.728 1.918 1.759 2.45 3.094s0.733 2.907 0.602 4.718h-3.346v-1.232c-0.009-1.643-0.299-2.842-0.868-3.598s-1.465-1.134-2.688-1.134c-1.381 0-2.408 0.429-3.080 1.288-0.672 0.849-1.008 2.095-1.008 3.738 0 1.531 0.336 2.716 1.008 3.556s1.652 1.26 2.94 1.26c0.831 0 1.545-0.182 2.142-0.546 0.607-0.373 1.073-0.91 1.4-1.61l3.332 1.008c-0.579 1.363-1.475 2.422-2.688 3.178-1.204 0.756-2.534 1.134-3.99 1.134zM19.76 18.378v-2.548h10.402v2.548h-10.402zM42.68 25c-0.999 0.187-1.979 0.266-2.94 0.238-0.952-0.019-1.806-0.191-2.562-0.518-0.756-0.336-1.33-0.863-1.722-1.582-0.345-0.653-0.527-1.321-0.546-2.002s-0.028-1.451-0.028-2.31v-13.146h3.36v12.95c0 0.607 0.005 1.139 0.014 1.596 0.019 0.457 0.117 0.831 0.294 1.12 0.336 0.56 0.873 0.873 1.61 0.938s1.577 0.028 2.52-0.112v2.828zM32.138 12.526v-2.646h10.542v2.646h-10.542zM45.091 25v-20.58h3.374v20.58h-3.374z"></path>
        <path fill="#f6b83d" style="fill: var(--color2, #f6b83d)" d="M62.493 10.434c-1.839-2.172-4.907-2.756-7.211-0.767s-2.629 5.314-0.819 7.666c1.159 1.506 4.128 4.3 6.113 6.114 0.66 0.603 0.989 0.904 1.384 1.025 0.34 0.104 0.728 0.104 1.067 0 0.395-0.121 0.725-0.422 1.384-1.025 1.985-1.814 4.954-4.608 6.113-6.114 1.81-2.352 1.525-5.698-0.819-7.666s-5.372-1.405-7.211 0.767z"></path>
        <path fill="#262626" style="fill: var(--color1, #262626)" d="M80.048 25l-5.488-15.12h3.374l3.808 10.962 3.794-10.962h3.388l-5.488 15.12h-3.388zM96.644 25.42c-1.531 0-2.875-0.331-4.032-0.994s-2.063-1.582-2.716-2.758c-0.644-1.176-0.966-2.529-0.966-4.060 0-1.652 0.317-3.085 0.952-4.298 0.635-1.223 1.517-2.17 2.646-2.842s2.436-1.008 3.92-1.008c1.568 0 2.898 0.369 3.99 1.106 1.101 0.728 1.918 1.759 2.45 3.094s0.732 2.907 0.602 4.718h-3.346v-1.232c-0.010-1.643-0.299-2.842-0.868-3.598s-1.465-1.134-2.688-1.134c-1.381 0-2.408 0.429-3.080 1.288-0.672 0.849-1.008 2.095-1.008 3.738 0 1.531 0.336 2.716 1.008 3.556s1.652 1.26 2.94 1.26c0.831 0 1.545-0.182 2.142-0.546 0.607-0.373 1.073-0.91 1.4-1.61l3.332 1.008c-0.579 1.363-1.475 2.422-2.688 3.178-1.204 0.756-2.534 1.134-3.99 1.134zM91.436 18.378v-2.548h10.402v2.548h-10.402z"></path>
    </symbol>   

    <symbol id="icon-eye-off" viewBox="0 0 32 32">
<path fill="none" stroke="#f6b83d" style="stroke: var(--color3, #f6b83d)" stroke-linejoin="round" stroke-linecap="round" stroke-miterlimit="4" stroke-width="2.9091" d="M23.922 23.92c-2.279 1.737-5.055 2.7-7.92 2.747-9.333 0-14.667-10.667-14.667-10.667 1.659-3.091 3.959-5.791 6.747-7.92M13.202 5.653c0.918-0.215 1.857-0.322 2.8-0.32 9.333 0 14.667 10.667 14.667 10.667-0.809 1.514-1.775 2.94-2.88 4.253M18.828 18.827c-0.366 0.393-0.808 0.708-1.298 0.927s-1.020 0.336-1.557 0.346c-0.537 0.009-1.071-0.089-1.569-0.291s-0.951-0.5-1.33-0.88c-0.38-0.38-0.679-0.832-0.88-1.33s-0.3-1.032-0.29-1.569c0.009-0.537 0.127-1.067 0.346-1.557s0.534-0.932 0.927-1.298"></path>
<path fill="none" stroke="#f6b83d" style="stroke: var(--color3, #f6b83d)" stroke-linejoin="round" stroke-linecap="round" stroke-miterlimit="4" stroke-width="2.9091" d="M1.335 1.333l29.333 29.333"></path>
</symbol>

<symbol id="icon-eye" viewBox="0 0 32 32">
<path fill="none" stroke="#f6b83d" style="stroke: var(--color3, #f6b83d)" stroke-linejoin="round" stroke-linecap="round" stroke-miterlimit="4" stroke-width="2.9091" d="M1.332 16c0 0 5.333-10.667 14.667-10.667s14.667 10.667 14.667 10.667-5.333 10.667-14.667 10.667c-9.333 0-14.667-10.667-14.667-10.667z"></path>
<path fill="none" stroke="#f6b83d" style="stroke: var(--color3, #f6b83d)" stroke-linejoin="round" stroke-linecap="round" stroke-miterlimit="4" stroke-width="2.9091" d="M16 20c2.209 0 4-1.791 4-4s-1.791-4-4-4c-2.209 0-4 1.791-4 4s1.791 4 4 4z"></path>
</symbol>

<symbol id="icon-cross" viewBox="0 0 32 32">
<path fill="none" stroke="#ef2447" style="stroke: var(--color2, #ef2447)" stroke-linejoin="round" stroke-linecap="round" stroke-miterlimit="4" stroke-width="4.2667" d="M29.511 2.133l-27.378 27.378M2.133 2.133l27.378 27.378"></path>
</symbol>

<symbol id="icon-tik" viewBox="0 0 45 32">
<path fill="none" stroke="#08aa83" style="stroke: var(--color1, #08aa83)" stroke-linejoin="round" stroke-linecap="round" stroke-miterlimit="4" stroke-width="4" d="M41.111 2l-26.889 26.889-12.222-12.222"></path>
</symbol>

<symbol id="icon-profile" viewBox="0 0 32 32">
<path fill="#fff4df" style="fill: var(--color1, #fff4df)" d="M32 16c0 8.837-7.163 16-16 16s-16-7.163-16-16c0-8.837 7.163-16 16-16s16 7.163 16 16z"></path>
<path fill="#f6b83d" style="fill: var(--color2, #f6b83d); stroke: var(--color2, #f6b83d)" stroke="#f6b83d" stroke-linejoin="round" stroke-linecap="round" stroke-miterlimit="4" stroke-width="1.28" d="M16 17.92c-2.029 0-3.833 0.98-4.982 2.5-0.247 0.327-0.371 0.491-0.367 0.712 0.003 0.171 0.11 0.386 0.245 0.492 0.174 0.137 0.415 0.137 0.897 0.137h8.413c0.482 0 0.723 0 0.897-0.137 0.134-0.105 0.242-0.321 0.245-0.492 0.004-0.221-0.12-0.385-0.367-0.712-1.149-1.52-2.953-2.5-4.982-2.5z"></path>
<path fill="#f6b83d" style="fill: var(--color2, #f6b83d); stroke: var(--color2, #f6b83d)" stroke="#f6b83d" stroke-linejoin="round" stroke-linecap="round" stroke-miterlimit="4" stroke-width="1.28" d="M16 16c1.591 0 2.88-1.289 2.88-2.88s-1.289-2.88-2.88-2.88c-1.591 0-2.88 1.289-2.88 2.88s1.289 2.88 2.88 2.88z"></path>
</symbol>

<symbol id="icon-next" viewBox="0 0 24 24">
<path d="M17.866 16.947c0.125-0.124 0.224-0.271 0.292-0.434s0.103-0.337 0.103-0.513-0.035-0.35-0.103-0.513c-0.068-0.162-0.167-0.31-0.292-0.434l-6.12-6.107c-0.125-0.124-0.224-0.271-0.292-0.434s-0.103-0.337-0.103-0.513c0-0.176 0.035-0.35 0.103-0.513s0.167-0.31 0.292-0.434c0.25-0.248 0.588-0.388 0.94-0.388s0.69 0.139 0.94 0.388l6.12 6.12c0.749 0.75 1.17 1.767 1.17 2.827s-0.421 2.077-1.17 2.827l-6.12 6.12c-0.248 0.246-0.584 0.385-0.933 0.387-0.175 0.001-0.349-0.033-0.512-0.099s-0.31-0.164-0.435-0.288c-0.125-0.124-0.224-0.271-0.292-0.434s-0.103-0.337-0.103-0.513c0-0.176 0.035-0.35 0.103-0.513s0.167-0.31 0.292-0.434l6.12-6.107z"></path>
</symbol>

<symbol id="icon-prev" viewBox="0 0 24 24">
<path d="M14.133 16.947c-0.125-0.124-0.224-0.271-0.292-0.434s-0.103-0.337-0.103-0.513c0-0.176 0.035-0.35 0.103-0.513s0.167-0.31 0.292-0.434l6.12-6.107c0.125-0.124 0.224-0.271 0.292-0.434s0.103-0.337 0.103-0.513-0.035-0.35-0.103-0.513c-0.068-0.162-0.167-0.31-0.292-0.434-0.25-0.248-0.588-0.388-0.94-0.388s-0.69 0.139-0.94 0.388l-6.12 6.12c-0.749 0.75-1.17 1.767-1.17 2.827s0.421 2.077 1.17 2.827l6.12 6.12c0.248 0.246 0.583 0.385 0.933 0.387 0.175 0.001 0.349-0.033 0.512-0.099s0.31-0.164 0.435-0.288c0.125-0.124 0.224-0.271 0.292-0.434s0.103-0.337 0.103-0.513c0-0.176-0.035-0.35-0.103-0.513s-0.167-0.31-0.292-0.434l-6.12-6.107z"></path>
</symbol>

<symbol id="icon-search" viewBox="0 0 32 32">
<path stroke-linejoin="round" stroke-linecap="round" stroke-miterlimit="4" stroke-width="3.5556" d="M14.667 25.333c5.891 0 10.667-4.776 10.667-10.667s-4.776-10.667-10.667-10.667c-5.891 0-10.667 4.776-10.667 10.667s4.776 10.667 10.667 10.667z"></path>
<path stroke-linejoin="round" stroke-linecap="round" stroke-miterlimit="4" stroke-width="3.5556" d="M28 28l-5.8-5.8"></path>
</symbol>

<symbol id="icon-star" viewBox="0 0 34 32">
<path fill="#ffc531" style="fill: var(--color1, #ffc531); stroke: var(--color1, #ffc531)" stroke="#ffc531" stroke-linejoin="miter" stroke-linecap="butt" stroke-miterlimit="4" stroke-width="2.7429" d="M20.319 9.43c0.364 0.689 1.027 1.171 1.795 1.304l8.685 1.5-6.143 6.326c-0.543 0.559-0.796 1.338-0.685 2.109l1.254 8.725-7.911-3.888-0.268-0.114c-0.544-0.193-1.139-0.193-1.683 0l-0.268 0.114-7.913 3.888 1.257-8.725c0.111-0.771-0.142-1.55-0.685-2.109l-6.145-6.326 8.688-1.5c0.768-0.133 1.431-0.614 1.795-1.304l4.114-7.797 4.114 7.797z"></path>
</symbol>

<symbol id="icon-fav" viewBox="0 0 36 32">
<path fill="none" stroke="#f6b83d" style="stroke: var(--color1, #f6b83d)" stroke-linejoin="round" stroke-linecap="round" stroke-miterlimit="4" stroke-width="3" d="M30.437 3.918c-0.766-0.766-1.676-1.375-2.677-1.789s-2.074-0.628-3.158-0.628c-1.084 0-2.157 0.214-3.158 0.628s-1.911 1.023-2.677 1.789l-1.59 1.59-1.59-1.59c-1.548-1.548-3.646-2.417-5.835-2.417s-4.287 0.869-5.835 2.417c-1.548 1.548-2.417 3.646-2.417 5.835s0.869 4.287 2.417 5.835l13.26 13.26 13.26-13.26c0.766-0.766 1.374-1.676 1.789-2.677s0.628-2.074 0.628-3.158-0.213-2.157-0.628-3.158c-0.415-1.001-1.023-1.911-1.789-2.677z"></path>
</symbol>

<symbol id="icon-trash" viewBox="0 0 32 32">
<path fill="none" stroke="#f6b83d" style="stroke: var(--color1, #f6b83d)" stroke-linejoin="round" stroke-linecap="round" stroke-miterlimit="4" stroke-width="2.6667" d="M4 8h24"></path>
<path fill="none" stroke="#f6b83d" style="stroke: var(--color1, #f6b83d)" stroke-linejoin="round" stroke-linecap="round" stroke-miterlimit="4" stroke-width="2.6667" d="M25.333 8v18.667c0 0.707-0.281 1.386-0.781 1.886s-1.178 0.781-1.886 0.781h-13.333c-0.707 0-1.386-0.281-1.886-0.781s-0.781-1.178-0.781-1.886v-18.667M10.667 8v-2.667c0-0.707 0.281-1.386 0.781-1.886s1.178-0.781 1.886-0.781h5.333c0.707 0 1.386 0.281 1.886 0.781s0.781 1.178 0.781 1.886v2.667"></path>
<path fill="none" stroke="#f6b83d" style="stroke: var(--color1, #f6b83d)" stroke-linejoin="round" stroke-linecap="round" stroke-miterlimit="4" stroke-width="2.6667" d="M13.333 14.667v8"></path>
<path fill="none" stroke="#f6b83d" style="stroke: var(--color1, #f6b83d)" stroke-linejoin="round" stroke-linecap="round" stroke-miterlimit="4" stroke-width="2.6667" d="M18.667 14.667v8"></path>
</symbol>
  </defs>
</svg>  