<svg aria-hidden="true" style="position: absolute; width: 0; height: 0; overflow: hidden;" version="1.1" xmlns="http://www.w3.org/2000/svg" xmlns:xlink="http://www.w3.org/1999/xlink">
  <defs>
   <symbol id="icon-logo" viewBox="0 0 105 32">
        <path fill="#262626" style="fill: var(--color1, #262626)" d="M9.226 25.42c-1.475 0-2.711-0.35-3.71-1.050s-1.75-1.652-2.254-2.856c-0.504-1.213-0.756-2.571-0.756-4.074 0-1.521 0.252-2.884 0.756-4.088s1.241-2.151 2.212-2.842c0.98-0.7 2.189-1.050 3.626-1.050 1.428 0 2.665 0.35 3.71 1.050 1.055 0.691 1.871 1.638 2.45 2.842 0.579 1.195 0.868 2.557 0.868 4.088 0 1.512-0.285 2.87-0.854 4.074s-1.372 2.156-2.408 2.856c-1.036 0.7-2.249 1.050-3.64 1.050zM1.932 31.72v-21.84h2.982v10.612h0.42v11.228h-3.402zM8.708 22.396c0.877 0 1.601-0.219 2.17-0.658s0.989-1.031 1.26-1.778c0.28-0.756 0.42-1.596 0.42-2.52 0-0.915-0.14-1.745-0.42-2.492-0.28-0.756-0.714-1.353-1.302-1.792-0.588-0.448-1.335-0.672-2.24-0.672-0.859 0-1.559 0.21-2.1 0.63-0.541 0.411-0.943 0.989-1.204 1.736-0.252 0.737-0.378 1.601-0.378 2.59 0 0.98 0.126 1.843 0.378 2.59 0.261 0.747 0.667 1.33 1.218 1.75 0.56 0.411 1.293 0.616 2.198 0.616zM24.968 25.42c-1.531 0-2.875-0.331-4.032-0.994s-2.063-1.582-2.716-2.758c-0.644-1.176-0.966-2.529-0.966-4.060 0-1.652 0.317-3.085 0.952-4.298 0.635-1.223 1.517-2.17 2.646-2.842s2.436-1.008 3.92-1.008c1.568 0 2.898 0.369 3.99 1.106 1.101 0.728 1.918 1.759 2.45 3.094s0.733 2.907 0.602 4.718h-3.346v-1.232c-0.009-1.643-0.299-2.842-0.868-3.598s-1.465-1.134-2.688-1.134c-1.381 0-2.408 0.429-3.080 1.288-0.672 0.849-1.008 2.095-1.008 3.738 0 1.531 0.336 2.716 1.008 3.556s1.652 1.26 2.94 1.26c0.831 0 1.545-0.182 2.142-0.546 0.607-0.373 1.073-0.91 1.4-1.61l3.332 1.008c-0.579 1.363-1.475 2.422-2.688 3.178-1.204 0.756-2.534 1.134-3.99 1.134zM19.76 18.378v-2.548h10.402v2.548h-10.402zM42.68 25c-0.999 0.187-1.979 0.266-2.94 0.238-0.952-0.019-1.806-0.191-2.562-0.518-0.756-0.336-1.33-0.863-1.722-1.582-0.345-0.653-0.527-1.321-0.546-2.002s-0.028-1.451-0.028-2.31v-13.146h3.36v12.95c0 0.607 0.005 1.139 0.014 1.596 0.019 0.457 0.117 0.831 0.294 1.12 0.336 0.56 0.873 0.873 1.61 0.938s1.577 0.028 2.52-0.112v2.828zM32.138 12.526v-2.646h10.542v2.646h-10.542zM45.091 25v-20.58h3.374v20.58h-3.374z"></path>
        <path fill="#f6b83d" style="fill: var(--color2, #f6b83d)" d="M62.493 10.434c-1.839-2.172-4.907-2.756-7.211-0.767s-2.629 5.314-0.819 7.666c1.159 1.506 4.128 4.3 6.113 6.114 0.66 0.603 0.989 0.904 1.384 1.025 0.34 0.104 0.728 0.104 1.067 0 0.395-0.121 0.725-0.422 1.384-1.025 1.985-1.814 4.954-4.608 6.113-6.114 1.81-2.352 1.525-5.698-0.819-7.666s-5.372-1.405-7.211 0.767z"></path>
        <path fill="#262626" style="fill: var(--color1, #262626)" d="M80.048 25l-5.488-15.12h3.374l3.808 10.962 3.794-10.962h3.388l-5.488 15.12h-3.388zM96.644 25.42c-1.531 0-2.875-0.331-4.032-0.994s-2.063-1.582-2.716-2.758c-0.644-1.176-0.966-2.529-0.966-4.060 0-1.652 0.317-3.085 0.952-4.298 0.635-1.223 1.517-2.17 2.646-2.842s2.436-1.008 3.92-1.008c1.568 0 2.898 0.369 3.99 1.106 1.101 0.728 1.918 1.759 2.45 3.094s0.732 2.907 0.602 4.718h-3.346v-1.232c-0.010-1.643-0.299-2.842-0.868-3.598s-1.465-1.134-2.688-1.134c-1.381 0-2.408 0.429-3.080 1.288-0.672 0.849-1.008 2.095-1.008 3.738 0 1.531 0.336 2.716 1.008 3.556s1.652 1.26 2.94 1.26c0.831 0 1.545-0.182 2.142-0.546 0.607-0.373 1.073-0.91 1.4-1.61l3.332 1.008c-0.579 1.363-1.475 2.422-2.688 3.178-1.204 0.756-2.534 1.134-3.99 1.134zM91.436 18.378v-2.548h10.402v2.548h-10.402z"></path>
    </symbol>   

    <symbol id="icon-eye-off" viewBox="0 0 32 32">
<path fill="none" stroke="#f6b83d" style="stroke: var(--color3, #f6b83d)" stroke-linejoin="round" stroke-linecap="round" stroke-miterlimit="4" stroke-width="2.9091" d="M23.922 23.92c-2.279 1.737-5.055 2.7-7.92 2.747-9.333 0-14.667-10.667-14.667-10.667 1.659-3.091 3.959-5.791 6.747-7.92M13.202 5.653c0.918-0.215 1.857-0.322 2.8-0.32 9.333 0 14.667 10.667 14.667 10.667-0.809 1.514-1.775 2.94-2.88 4.253M18.828 18.827c-0.366 0.393-0.808 0.708-1.298 0.927s-1.020 0.336-1.557 0.346c-0.537 0.009-1.071-0.089-1.569-0.291s-0.951-0.5-1.33-0.88c-0.38-0.38-0.679-0.832-0.88-1.33s-0.3-1.032-0.29-1.569c0.009-0.537 0.127-1.067 0.346-1.557s0.534-0.932 0.927-1.298"></path>
<path fill="none" stroke="#f6b83d" style="stroke: var(--color3, #f6b83d)" stroke-linejoin="round" stroke-linecap="round" stroke-miterlimit="4" stroke-width="2.9091" d="M1.335 1.333l29.333 29.333"></path>
</symbol>

<symbol id="icon-eye" viewBox="0 0 32 32">
<path fill="none" stroke="#f6b83d" style="stroke: var(--color3, #f6b83d)" stroke-linejoin="round" stroke-linecap="round" stroke-miterlimit="4" stroke-width="2.9091" d="M1.332 16c0 0 5.333-10.667 14.667-10.667s14.667 10.667 14.667 10.667-5.333 10.667-14.667 10.667c-9.333 0-14.667-10.667-14.667-10.667z"></path>
<path fill="none" stroke="#f6b83d" style="stroke: var(--color3, #f6b83d)" stroke-linejoin="round" stroke-linecap="round" stroke-miterlimit="4" stroke-width="2.9091" d="M16 20c2.209 0 4-1.791 4-4s-1.791-4-4-4c-2.209 0-4 1.791-4 4s1.791 4 4 4z"></path>
</symbol>

<symbol id="icon-cross" viewBox="0 0 32 32">
<path fill="none" stroke="#ef2447" style="stroke: var(--color2, #ef2447)" stroke-linejoin="round" stroke-linecap="round" stroke-miterlimit="4" stroke-width="4.2667" d="M29.511 2.133l-27.378 27.378M2.133 2.133l27.378 27.378"></path>
</symbol>

<symbol id="icon-tik" viewBox="0 0 45 32">
<path fill="none" stroke="#08aa83" style="stroke: var(--color1, #08aa83)" stroke-linejoin="round" stroke-linecap="round" stroke-miterlimit="4" stroke-width="4" d="M41.111 2l-26.889 26.889-12.222-12.222"></path>
</symbol>

<symbol id="icon-profile" viewBox="0 0 32 32">
<path fill="#fff4df" style="fill: var(--color1, #fff4df)" d="M32 16c0 8.837-7.163 16-16 16s-16-7.163-16-16c0-8.837 7.163-16 16-16s16 7.163 16 16z"></path>
<path fill="#f6b83d" style="fill: var(--color2, #f6b83d); stroke: var(--color2, #f6b83d)" stroke="#f6b83d" stroke-linejoin="round" stroke-linecap="round" stroke-miterlimit="4" stroke-width="1.28" d="M16 17.92c-2.029 0-3.833 0.98-4.982 2.5-0.247 0.327-0.371 0.491-0.367 0.712 0.003 0.171 0.11 0.386 0.245 0.492 0.174 0.137 0.415 0.137 0.897 0.137h8.413c0.482 0 0.723 0 0.897-0.137 0.134-0.105 0.242-0.321 0.245-0.492 0.004-0.221-0.12-0.385-0.367-0.712-1.149-1.52-2.953-2.5-4.982-2.5z"></path>
<path fill="#f6b83d" style="fill: var(--color2, #f6b83d); stroke: var(--color2, #f6b83d)" stroke="#f6b83d" stroke-linejoin="round" stroke-linecap="round" stroke-miterlimit="4" stroke-width="1.28" d="M16 16c1.591 0 2.88-1.289 2.88-2.88s-1.289-2.88-2.88-2.88c-1.591 0-2.88 1.289-2.88 2.88s1.289 2.88 2.88 2.88z"></path>
</symbol>

<symbol id="icon-next" viewBox="0 0 24 24">
<path d="M17.866 16.947c0.125-0.124 0.224-0.271 0.292-0.434s0.103-0.337 0.103-0.513-0.035-0.35-0.103-0.513c-0.068-0.162-0.167-0.31-0.292-0.434l-6.12-6.107c-0.125-0.124-0.224-0.271-0.292-0.434s-0.103-0.337-0.103-0.513c0-0.176 0.035-0.35 0.103-0.513s0.167-0.31 0.292-0.434c0.25-0.248 0.588-0.388 0.94-0.388s0.69 0.139 0.94 0.388l6.12 6.12c0.749 0.75 1.17 1.767 1.17 2.827s-0.421 2.077-1.17 2.827l-6.12 6.12c-0.248 0.246-0.584 0.385-0.933 0.387-0.175 0.001-0.349-0.033-0.512-0.099s-0.31-0.164-0.435-0.288c-0.125-0.124-0.224-0.271-0.292-0.434s-0.103-0.337-0.103-0.513c0-0.176 0.035-0.35 0.103-0.513s0.167-0.31 0.292-0.434l6.12-6.107z"></path>
</symbol>

<symbol id="icon-prev" viewBox="0 0 24 24">
<path d="M14.133 16.947c-0.125-0.124-0.224-0.271-0.292-0.434s-0.103-0.337-0.103-0.513c0-0.176 0.035-0.35 0.103-0.513s0.167-0.31 0.292-0.434l6.12-6.107c0.125-0.124 0.224-0.271 0.292-0.434s0.103-0.337 0.103-0.513-0.035-0.35-0.103-0.513c-0.068-0.162-0.167-0.31-0.292-0.434-0.25-0.248-0.588-0.388-0.94-0.388s-0.69 0.139-0.94 0.388l-6.12 6.12c-0.749 0.75-1.17 1.767-1.17 2.827s0.421 2.077 1.17 2.827l6.12 6.12c0.248 0.246 0.583 0.385 0.933 0.387 0.175 0.001 0.349-0.033 0.512-0.099s0.31-0.164 0.435-0.288c0.125-0.124 0.224-0.271 0.292-0.434s0.103-0.337 0.103-0.513c0-0.176-0.035-0.35-0.103-0.513s-0.167-0.31-0.292-0.434l-6.12-6.107z"></path>
</symbol>

<symbol id="icon-search" viewBox="0 0 32 32">
<path stroke-linejoin="round" stroke-linecap="round" stroke-miterlimit="4" stroke-width="3.5556" d="M14.667 25.333c5.891 0 10.667-4.776 10.667-10.667s-4.776-10.667-10.667-10.667c-5.891 0-10.667 4.776-10.667 10.667s4.776 10.667 10.667 10.667z"></path>
<path stroke-linejoin="round" stroke-linecap="round" stroke-miterlimit="4" stroke-width="3.5556" d="M28 28l-5.8-5.8"></path>
</symbol>

<symbol id="icon-star" viewBox="0 0 34 32">
<path fill="#ffc531" style="fill: var(--color1, #ffc531); stroke: var(--color1, #ffc531)" stroke="#ffc531" stroke-linejoin="miter" stroke-linecap="butt" stroke-miterlimit="4" stroke-width="2.7429" d="M20.319 9.43c0.364 0.689 1.027 1.171 1.795 1.304l8.685 1.5-6.143 6.326c-0.543 0.559-0.796 1.338-0.685 2.109l1.254 8.725-7.911-3.888-0.268-0.114c-0.544-0.193-1.139-0.193-1.683 0l-0.268 0.114-7.913 3.888 1.257-8.725c0.111-0.771-0.142-1.55-0.685-2.109l-6.145-6.326 8.688-1.5c0.768-0.133 1.431-0.614 1.795-1.304l4.114-7.797 4.114 7.797z"></path>
</symbol>

<symbol id="icon-fav" viewBox="0 0 36 32">
<path fill="none" stroke="#f6b83d" style="stroke: var(--color1, #f6b83d)" stroke-linejoin="round" stroke-linecap="round" stroke-miterlimit="4" stroke-width="3" d="M30.437 3.918c-0.766-0.766-1.676-1.375-2.677-1.789s-2.074-0.628-3.158-0.628c-1.084 0-2.157 0.214-3.158 0.628s-1.911 1.023-2.677 1.789l-1.59 1.59-1.59-1.59c-1.548-1.548-3.646-2.417-5.835-2.417s-4.287 0.869-5.835 2.417c-1.548 1.548-2.417 3.646-2.417 5.835s0.869 4.287 2.417 5.835l13.26 13.26 13.26-13.26c0.766-0.766 1.374-1.676 1.789-2.677s0.628-2.074 0.628-3.158-0.213-2.157-0.628-3.158c-0.415-1.001-1.023-1.911-1.789-2.677z"></path>
</symbol>

<symbol id="icon-trash" viewBox="0 0 32 32">
<path fill="none" stroke="#f6b83d" style="stroke: var(--color1, #f6b83d)" stroke-linejoin="round" stroke-linecap="round" stroke-miterlimit="4" stroke-width="2.6667" d="M4 8h24"></path>
<path fill="none" stroke="#f6b83d" style="stroke: var(--color1, #f6b83d)" stroke-linejoin="round" stroke-linecap="round" stroke-miterlimit="4" stroke-width="2.6667" d="M25.333 8v18.667c0 0.707-0.281 1.386-0.781 1.886s-1.178 0.781-1.886 0.781h-13.333c-0.707 0-1.386-0.281-1.886-0.781s-0.781-1.178-0.781-1.886v-18.667M10.667 8v-2.667c0-0.707 0.281-1.386 0.781-1.886s1.178-0.781 1.886-0.781h5.333c0.707 0 1.386 0.281 1.886 0.781s0.781 1.178 0.781 1.886v2.667"></path>
<path fill="none" stroke="#f6b83d" style="stroke: var(--color1, #f6b83d)" stroke-linejoin="round" stroke-linecap="round" stroke-miterlimit="4" stroke-width="2.6667" d="M13.333 14.667v8"></path>
<path fill="none" stroke="#f6b83d" style="stroke: var(--color1, #f6b83d)" stroke-linejoin="round" stroke-linecap="round" stroke-miterlimit="4" stroke-width="2.6667" d="M18.667 14.667v8"></path>
</symbol>

<symbol id="icon-user" viewBox="0 0 32 32">
<path fill="#fff" style="fill: var(--color3, #fff); stroke: var(--color3, #fff)" stroke="#fff" stroke-linejoin="round" stroke-linecap="round" stroke-miterlimit="4" stroke-width="3.5556" d="M16 20c-4.227 0-7.986 2.041-10.379 5.208-0.515 0.682-0.773 1.022-0.764 1.483 0.006 0.356 0.23 0.805 0.51 1.025 0.362 0.284 0.865 0.284 1.869 0.284h17.527c1.004 0 1.507 0 1.869-0.284 0.28-0.22 0.503-0.669 0.51-1.025 0.009-0.461-0.249-0.801-0.764-1.483-2.393-3.167-6.152-5.208-10.379-5.208z"></path>
<path fill="#fff" style="fill: var(--color3, #fff); stroke: var(--color3, #fff)" stroke="#fff" stroke-linejoin="round" stroke-linecap="round" stroke-miterlimit="4" stroke-width="3.5556" d="M16 16c3.314 0 6-2.686 6-6s-2.686-6-6-6c-3.314 0-6 2.686-6 6s2.686 6 6 6z"></path>
</symbol>

<symbol id="icon-edit" viewBox="0 0 32 32">
<path fill="none" stroke="#f6b83d" style="stroke: var(--color1, #f6b83d)" stroke-linejoin="round" stroke-linecap="round" stroke-miterlimit="4" stroke-width="2.8235" d="M22.588 2.581c0.371-0.371 0.811-0.665 1.295-0.866s1.004-0.304 1.528-0.304c0.524 0 1.044 0.103 1.528 0.304s0.925 0.495 1.295 0.866c0.371 0.371 0.665 0.811 0.866 1.295s0.304 1.004 0.304 1.528c0 0.524-0.103 1.044-0.304 1.528s-0.495 0.925-0.866 1.295l-19.059 19.059-7.765 2.118 2.118-7.765 19.059-19.059z"></path>
</symbol>

<symbol id="icon-plus" viewBox="0 0 32 32">
<path fill="none" stroke="#fff" style="stroke: var(--color3, #fff)" stroke-linejoin="round" stroke-linecap="round" stroke-miterlimit="4" stroke-width="2.6667" d="M16 6.667v18.667"></path>
<path fill="none" stroke="#fff" style="stroke: var(--color3, #fff)" stroke-linejoin="round" stroke-linecap="round" stroke-miterlimit="4" stroke-width="2.6667" d="M6.667 16h18.667"></path>
</symbol>

<symbol id="icon-upload" viewBox="0 0 32 32">
<path fill="none" stroke="#f6b83d" style="stroke: var(--color1, #f6b83d)" stroke-linejoin="round" stroke-linecap="round" stroke-miterlimit="4" stroke-width="2.3111" d="M16 16v12"></path>
<path fill="none" stroke="#f6b83d" style="stroke: var(--color1, #f6b83d)" stroke-linejoin="round" stroke-linecap="round" stroke-miterlimit="4" stroke-width="2.3111" d="M27.187 24.52c1.3-0.709 2.328-1.831 2.92-3.188s0.715-2.874 0.35-4.309c-0.365-1.435-1.198-2.708-2.367-3.618s-2.608-1.404-4.089-1.405h-1.68c-0.404-1.561-1.156-3.010-2.2-4.239s-2.353-2.204-3.829-2.854-3.079-0.956-4.691-0.897c-1.611 0.059-3.188 0.483-4.612 1.24s-2.658 1.826-3.609 3.128c-0.951 1.302-1.595 2.803-1.882 4.389s-0.212 3.217 0.222 4.77c0.433 1.553 1.213 2.987 2.281 4.196"></path>
<path fill="none" stroke="#f6b83d" style="stroke: var(--color1, #f6b83d)" stroke-linejoin="round" stroke-linecap="round" stroke-miterlimit="4" stroke-width="2.3111" d="M21.333 21.333l-5.333-5.333-5.333 5.333"></path>
</symbol>

<symbol id="icon-gender" viewBox="0 0 36 32">
<path fill="#f6b83d" style="fill: var(--color3, #f6b83d)" d="M11.541 7.49c-1.435-0.56-3.015-0.632-4.495-0.202s-2.776 1.335-3.689 2.577c-0.912 1.242-1.389 2.75-1.357 4.29s0.572 3.027 1.536 4.229c0.964 1.202 2.297 2.053 3.794 2.42s3.072 0.229 4.483-0.391c1.41-0.62 2.577-1.689 3.318-3.040s1.016-2.909 0.781-4.431c-0.020-0.13-0.014-0.262 0.017-0.39s0.087-0.248 0.165-0.354c0.078-0.106 0.175-0.195 0.288-0.264s0.237-0.113 0.367-0.133c0.13-0.020 0.262-0.014 0.39 0.017s0.248 0.087 0.354 0.165c0.106 0.078 0.195 0.175 0.263 0.288s0.113 0.237 0.133 0.367c0.301 1.958-0.052 3.961-1.005 5.697s-2.453 3.11-4.266 3.908c-1.813 0.797-3.839 0.974-5.763 0.502s-3.638-1.565-4.877-3.111c-1.239-1.546-1.933-3.457-1.975-5.438s0.572-3.919 1.745-5.516c1.173-1.596 2.84-2.761 4.742-3.313s3.934-0.461 5.779 0.26c0.124 0.046 0.237 0.117 0.334 0.208s0.174 0.2 0.228 0.321c0.054 0.121 0.083 0.251 0.087 0.384s-0.020 0.264-0.068 0.387c-0.048 0.123-0.12 0.236-0.212 0.331s-0.202 0.171-0.324 0.224c-0.122 0.052-0.252 0.080-0.385 0.082s-0.264-0.022-0.386-0.072z"></path>
<path fill="#f6b83d" style="fill: var(--color3, #f6b83d)" d="M7.996 31v-7.997c0-0.265 0.105-0.519 0.293-0.707s0.442-0.293 0.707-0.293c0.265 0 0.519 0.105 0.707 0.293s0.293 0.442 0.293 0.707v7.997c0 0.265-0.105 0.519-0.293 0.707s-0.442 0.293-0.707 0.293c-0.265 0-0.519-0.105-0.707-0.293s-0.293-0.442-0.293-0.707z"></path>
<path fill="#f6b83d" style="fill: var(--color3, #f6b83d)" d="M4.998 26.002c0-0.265 0.105-0.519 0.293-0.707s0.442-0.293 0.707-0.293h5.998c0.265 0 0.519 0.105 0.707 0.293s0.293 0.442 0.293 0.707c0 0.265-0.105 0.519-0.293 0.707s-0.442 0.293-0.707 0.293h-5.998c-0.265 0-0.519-0.105-0.707-0.293s-0.293-0.442-0.293-0.707zM22.893 7.273c-1.108-0.313-2.276-0.347-3.4-0.101s-2.171 0.767-3.046 1.514c-0.875 0.748-1.553 1.7-1.972 2.772s-0.568 2.231-0.432 3.374c0.016 0.131 0.006 0.263-0.029 0.39s-0.095 0.246-0.176 0.349c-0.081 0.104-0.182 0.19-0.297 0.255s-0.241 0.106-0.372 0.121c-0.131 0.016-0.263 0.005-0.39-0.031s-0.245-0.096-0.348-0.178c-0.103-0.082-0.189-0.183-0.253-0.298s-0.105-0.242-0.119-0.373c-0.234-1.967 0.189-3.956 1.201-5.659s2.559-3.023 4.399-3.757c1.84-0.734 3.871-0.84 5.777-0.302s3.582 1.69 4.767 3.278c1.185 1.588 1.812 3.522 1.785 5.503s-0.707 3.897-1.935 5.452c-1.228 1.555-2.934 2.661-4.855 3.147s-3.948 0.324-5.767-0.46c-0.121-0.052-0.23-0.127-0.321-0.221s-0.164-0.205-0.212-0.327c-0.098-0.246-0.094-0.521 0.011-0.765s0.302-0.435 0.548-0.533c0.246-0.098 0.521-0.094 0.765 0.011 0.879 0.379 1.827 0.573 2.785 0.571s1.905-0.201 2.782-0.584c0.878-0.383 1.667-0.942 2.32-1.643s1.155-1.528 1.475-2.43c0.32-0.902 0.452-1.861 0.387-2.816s-0.326-1.887-0.765-2.738-1.050-1.602-1.792-2.207c-0.742-0.605-1.6-1.052-2.522-1.313z"></path>
<path fill="#f6b83d" style="fill: var(--color3, #f6b83d)" d="M26.783 9.216c-0.187-0.187-0.293-0.442-0.293-0.707s0.105-0.519 0.293-0.707l7.497-7.497c0.092-0.095 0.203-0.172 0.325-0.224s0.253-0.080 0.386-0.081c0.133-0.001 0.264 0.024 0.387 0.074s0.234 0.124 0.328 0.218c0.094 0.094 0.168 0.205 0.218 0.328s0.076 0.254 0.074 0.387c-0.001 0.133-0.029 0.264-0.081 0.386s-0.128 0.232-0.224 0.324l-7.497 7.497c-0.188 0.187-0.442 0.293-0.707 0.293s-0.519-0.105-0.707-0.293z"></path>
<path fill="#f6b83d" style="fill: var(--color3, #f6b83d)" d="M34.91 7.010c-0.131-0.002-0.261-0.029-0.382-0.081s-0.23-0.127-0.321-0.221c-0.092-0.094-0.164-0.205-0.213-0.327s-0.073-0.252-0.071-0.384l0.050-3.972-3.972 0.050c-0.265 0.003-0.521-0.099-0.711-0.284s-0.299-0.438-0.302-0.703 0.099-0.521 0.284-0.711c0.185-0.19 0.438-0.299 0.703-0.302l6.024-0.076-0.076 6.024c-0.002 0.131-0.029 0.261-0.081 0.382s-0.127 0.23-0.221 0.322c-0.094 0.092-0.205 0.164-0.327 0.212s-0.252 0.073-0.383 0.071z"></path>
</symbol>

<symbol id="icon-boy" viewBox="0 0 19 32">
<path fill="none" stroke="#54adff" style="stroke: var(--color1, #54adff)" stroke-linejoin="round" stroke-linecap="round" stroke-miterlimit="4" stroke-width="2.4" d="M9.2 14c-4.418 0-8 3.582-8 8s3.582 8 8 8c4.418 0 8-3.582 8-8s-3.582-8-8-8zM9.2 14v-12.8M9.2 1.2l6.4 6.4M9.2 1.2l-6.4 6.4"></path>
</symbol>

<symbol id="icon-girl" viewBox="0 0 19 32">
<path fill="none" stroke="#f43f5e" style="stroke: var(--color2, #f43f5e)" stroke-linejoin="round" stroke-linecap="round" stroke-miterlimit="4" stroke-width="2.4" d="M9.2 17.2c4.418 0 8-3.582 8-8s-3.582-8-8-8c-4.418 0-8 3.582-8 8s3.582 8 8 8zM9.2 17.2v12.8M4.4 25.2h9.6"></path>
</symbol>

<symbol id="icon-paw" viewBox="0 0 34 32">
<path fill="#f6b83d" style="fill: var(--color1, #f6b83d)" d="M12.065 0c-1.519 0-2.842 0.863-3.682 2.041s-1.286 2.7-1.286 4.346c0 1.646 0.446 3.169 1.286 4.347s2.163 2.040 3.682 2.040 2.841-0.863 3.682-2.041c0.84-1.178 1.286-2.7 1.286-4.346s-0.446-3.169-1.286-4.348c-0.84-1.178-2.163-2.040-3.682-2.040zM17.032 6.387c0 1.646 0.446 3.169 1.286 4.347s2.164 2.040 3.682 2.040c1.519 0 2.842-0.863 3.682-2.041s1.286-2.7 1.286-4.346-0.446-3.169-1.286-4.348c-0.84-1.178-2.163-2.040-3.682-2.040s-2.842 0.863-3.682 2.041c-0.84 1.178-1.286 2.7-1.286 4.346zM12.065 2.839c0.443 0 0.931 0.221 1.377 0.843 0.44 0.62 0.752 1.608 0.752 2.705s-0.312 2.086-0.752 2.705c-0.446 0.622-0.934 0.843-1.377 0.843s-0.931-0.221-1.377-0.843c-0.44-0.62-0.752-1.608-0.752-2.705s0.312-2.086 0.752-2.705c0.446-0.622 0.934-0.843 1.377-0.843zM22 2.839c0.443 0 0.931 0.221 1.377 0.843 0.44 0.62 0.752 1.608 0.752 2.705s-0.312 2.086-0.752 2.705c-0.446 0.622-0.934 0.843-1.377 0.843s-0.931-0.221-1.377-0.843c-0.44-0.62-0.752-1.608-0.752-2.705s0.312-2.086 0.752-2.705c0.446-0.622 0.934-0.843 1.377-0.843zM4.968 9.935c-1.519 0-2.842 0.863-3.682 2.041s-1.286 2.7-1.286 4.346 0.446 3.169 1.286 4.347c0.84 1.178 2.163 2.040 3.682 2.040s2.842-0.863 3.682-2.041c0.84-1.178 1.286-2.7 1.286-4.346s-0.446-3.169-1.286-4.347c-0.84-1.178-2.163-2.040-3.682-2.040zM29.097 9.935c-1.519 0-2.842 0.863-3.682 2.041s-1.286 2.7-1.286 4.346 0.446 3.169 1.286 4.347c0.84 1.178 2.163 2.040 3.682 2.040s2.842-0.863 3.682-2.041c0.84-1.178 1.286-2.7 1.286-4.346s-0.446-3.169-1.286-4.347c-0.84-1.178-2.163-2.040-3.682-2.040zM4.968 12.774c0.443 0 0.931 0.221 1.377 0.843 0.44 0.62 0.752 1.608 0.752 2.705s-0.312 2.087-0.752 2.705c-0.446 0.622-0.934 0.843-1.377 0.843s-0.931-0.221-1.377-0.843c-0.44-0.619-0.752-1.608-0.752-2.705s0.312-2.086 0.752-2.705c0.446-0.622 0.934-0.843 1.377-0.843zM29.097 12.774c0.443 0 0.931 0.221 1.377 0.843 0.44 0.62 0.752 1.608 0.752 2.705s-0.312 2.087-0.752 2.705c-0.446 0.622-0.934 0.843-1.377 0.843s-0.931-0.221-1.377-0.843c-0.44-0.62-0.752-1.608-0.752-2.705s0.312-2.086 0.752-2.705c0.446-0.622 0.934-0.843 1.377-0.843zM17.032 15.613c-1.892 0-3.212 1.228-3.861 2.306-0.644 1.079-1.042 1.976-1.419 2.35-0.217 0.223-1.587 0.738-3.015 1.466-0.714 0.365-1.434 0.852-2.040 1.597-0.61 0.745-1.022 1.774-1.022 2.928 0 2.725 2.243 4.968 4.968 4.968 1.229 0 2.512-0.397 3.768-0.752 1.262-0.363 2.62-0.67 2.62-0.67s1.358 0.307 2.617 0.667c1.258 0.355 2.541 0.752 3.77 0.752 2.725 0 4.968-2.243 4.968-4.968 0-1.127-0.416-2.157-1.022-2.881-0.603-0.728-1.33-1.178-2.038-1.554-1.419-0.752-2.815-1.348-3.016-1.553-0.341-0.336-0.724-1.263-1.377-2.348-0.651-1.089-2-2.309-3.902-2.309zM17.032 18.452c0.937 0 1.040 0.227 1.462 0.931 0.426 0.703 0.744 1.896 1.774 2.928 1.171 1.164 2.65 1.419 3.727 1.993 0.539 0.287 0.951 0.592 1.198 0.887 0.246 0.294 0.355 0.562 0.355 1.065 0 1.192-0.937 2.129-2.129 2.129-0.412 0-1.737-0.312-2.972-0.667-1.235-0.351-2.257-0.752-3.415-0.752s-2.18 0.402-3.415 0.752c-1.235 0.355-2.56 0.667-2.972 0.667-1.192 0-2.129-0.937-2.129-2.129 0-0.572 0.119-0.866 0.355-1.155 0.236-0.288 0.67-0.573 1.198-0.842 1.056-0.539 2.526-0.752 3.726-1.952 1.040-1.046 1.353-2.278 1.774-2.974 0.414-0.696 0.514-0.887 1.462-0.887l0.001 0.006z"></path>
</symbol>

<symbol id="icon-calendar" viewBox="0 0 32 32">
<path stroke-linejoin="round" stroke-linecap="round" stroke-miterlimit="4" stroke-width="2.88" d="M25.333 5.333h-18.667c-1.473 0-2.667 1.194-2.667 2.667v18.667c0 1.473 1.194 2.667 2.667 2.667h18.667c1.473 0 2.667-1.194 2.667-2.667v-18.667c0-1.473-1.194-2.667-2.667-2.667z"></path>
<path stroke-linejoin="round" stroke-linecap="round" stroke-miterlimit="4" stroke-width="2.88" d="M21.333 2.667v5.333"></path>
<path stroke-linejoin="round" stroke-linecap="round" stroke-miterlimit="4" stroke-width="2.88" d="M10.667 2.667v5.333"></path>
<path stroke-linejoin="round" stroke-linecap="round" stroke-miterlimit="4" stroke-width="2.88" d="M4 13.333h24"></path>
</symbol>
  </defs>
</svg>  